<svg width="900" height="400" viewBox="0 0 900 400" fill="none" xmlns="http://www.w3.org/2000/svg">
  <rect width="900" height="400" fill="#111"/>
  <text x="50%" y="50" text-anchor="middle" fill="#00d4ff" font-size="32" font-family="Arial" font-weight="bold">MÉTRICAS DE PREDICCIÓN</text>
  <text x="50%" y="85" text-anchor="middle" fill="#00d4ff" font-size="22" font-family="Arial">(Ejemplo de Predicciones Realizada el Día 22-01-2026)</text>
  <!-- Table header -->
  <rect x="60" y="110" width="780" height="40" fill="#222"/>
  <text x="110" y="137" fill="#fff" font-size="18" font-family="Arial" font-weight="bold">Fecha</text>
  <text x="230" y="137" fill="#fff" font-size="18" font-family="Arial" font-weight="bold">SPY</text>
  <text x="350" y="137" fill="#fff" font-size="18" font-family="Arial" font-weight="bold">DIA</text>
  <text x="470" y="137" fill="#fff" font-size="18" font-family="Arial" font-weight="bold">QQQ</text>
  <text x="590" y="137" fill="#fff" font-size="18" font-family="Arial" font-weight="bold">XLK</text>
  <text x="710" y="137" fill="#fff" font-size="18" font-family="Arial" font-weight="bold">IWV</text>
  <!-- Table rows -->
  <g font-size="17" font-family="Arial" fill="#fff">
    <rect x="60" y="150" width="780" height="38" fill="#191919"/>
    <text x="110" y="175">2026-01-23</text>
    <text x="230" y="175">641.950073</text>
    <text x="350" y="175">457.819092</text>
    <text x="470" y="175">553.579041</text>
    <text x="590" y="175">130.133240</text>
    <text x="710" y="175">361.893433</text>
    <rect x="60" y="188" width="780" height="38" fill="#222"/>
    <text x="110" y="213">2026-01-26</text>
    <text x="230" y="213">659.466370</text>
    <text x="350" y="213">447.103668</text>
    <text x="470" y="213">566.875305</text>
    <text x="590" y="213">136.456650</text>
    <text x="710" y="213">373.101318</text>
    <rect x="60" y="226" width="780" height="38" fill="#191919"/>
    <text x="110" y="251">2026-01-27</text>
    <text x="230" y="251">664.576538</text>
    <text x="350" y="251">433.876587</text>
    <text x="470" y="251">555.197510</text>
    <text x="590" y="251">132.385162</text>
    <text x="710" y="251">370.738068</text>
    <rect x="60" y="264" width="780" height="38" fill="#222"/>
    <text x="110" y="289">2026-01-28</text>
    <text x="230" y="289">677.458191</text>
    <text x="350" y="289">450.404205</text>
    <text x="470" y="289">564.465881</text>
    <text x="590" y="289">133.909195</text>
    <text x="710" y="289">363.889496</text>
    <rect x="60" y="302" width="780" height="38" fill="#191919"/>
    <text x="110" y="327">2026-01-29</text>
    <text x="230" y="327">654.086121</text>
    <text x="350" y="327">460.860687</text>
    <text x="470" y="327">566.824402</text>
    <text x="590" y="327">130.879608</text>
    <text x="710" y="327">369.715698</text>
  </g>
  <!-- Border -->
  <rect x="60" y="110" width="780" height="230" fill="none" stroke="#00d4ff" stroke-width="2"/>
</svg>
